<mxfile host="Electron" agent="Mozilla/5.0 (Windows NT 10.0; Win64; x64) AppleWebKit/537.36 (KHTML, like Gecko) draw.io/24.7.8 Chrome/128.0.6613.36 Electron/32.0.1 Safari/537.36" version="24.7.8">
  <diagram name="Page-1" id="hpsE1OScrS0Jb34s3-jt">
    <mxGraphModel dx="1593" dy="929" grid="1" gridSize="10" guides="1" tooltips="1" connect="1" arrows="1" fold="1" page="1" pageScale="1" pageWidth="850" pageHeight="1100" math="0" shadow="0">
      <root>
        <mxCell id="0" />
        <mxCell id="1" parent="0" />
        <mxCell id="8oeNf3qkIjY3Hb9Y6gsA-299" value="" style="rounded=0;whiteSpace=wrap;html=1;fillColor=none;strokeWidth=2;dashed=1;" vertex="1" parent="1">
          <mxGeometry x="380" y="600" width="920" height="80" as="geometry" />
        </mxCell>
        <mxCell id="8oeNf3qkIjY3Hb9Y6gsA-1" value="OPENLDR API" style="text;align=center;fontStyle=1;verticalAlign=middle;spacingLeft=3;spacingRight=3;strokeColor=none;rotatable=0;points=[[0,0.5],[1,0.5]];portConstraint=eastwest;html=1;fontSize=16;" vertex="1" parent="1">
          <mxGeometry x="810" y="40" width="120" height="26" as="geometry" />
        </mxCell>
        <mxCell id="8oeNf3qkIjY3Hb9Y6gsA-2" value="DIAGRAMA DE COMPONENTES" style="text;align=center;fontStyle=1;verticalAlign=middle;spacingLeft=3;spacingRight=3;strokeColor=none;rotatable=0;points=[[0,0.5],[1,0.5]];portConstraint=eastwest;html=1;fontSize=14;" vertex="1" parent="1">
          <mxGeometry x="770" y="90" width="200" height="30" as="geometry" />
        </mxCell>
        <mxCell id="8oeNf3qkIjY3Hb9Y6gsA-6" value="" style="edgeStyle=orthogonalEdgeStyle;rounded=0;orthogonalLoop=1;jettySize=auto;html=1;" edge="1" parent="1" source="8oeNf3qkIjY3Hb9Y6gsA-3" target="8oeNf3qkIjY3Hb9Y6gsA-221">
          <mxGeometry relative="1" as="geometry" />
        </mxCell>
        <mxCell id="8oeNf3qkIjY3Hb9Y6gsA-7" value="&lt;span&gt;Protocolo HTTP&lt;/span&gt;" style="edgeLabel;html=1;align=center;verticalAlign=middle;resizable=0;points=[];fontStyle=1" vertex="1" connectable="0" parent="8oeNf3qkIjY3Hb9Y6gsA-6">
          <mxGeometry x="-0.125" y="1" relative="1" as="geometry">
            <mxPoint x="-1" y="-33" as="offset" />
          </mxGeometry>
        </mxCell>
        <mxCell id="8oeNf3qkIjY3Hb9Y6gsA-3" value="&lt;b&gt;Cliente&lt;/b&gt;" style="html=1;whiteSpace=wrap;fillColor=#dae8fc;strokeColor=#6c8ebf;strokeWidth=2;" vertex="1" parent="1">
          <mxGeometry x="810" y="130" width="120" height="40" as="geometry" />
        </mxCell>
        <mxCell id="8oeNf3qkIjY3Hb9Y6gsA-13" style="edgeStyle=orthogonalEdgeStyle;rounded=0;orthogonalLoop=1;jettySize=auto;html=1;strokeWidth=1;endArrow=block;endFill=1;" edge="1" parent="1" source="8oeNf3qkIjY3Hb9Y6gsA-4" target="8oeNf3qkIjY3Hb9Y6gsA-10">
          <mxGeometry relative="1" as="geometry" />
        </mxCell>
        <mxCell id="8oeNf3qkIjY3Hb9Y6gsA-224" style="edgeStyle=orthogonalEdgeStyle;rounded=0;orthogonalLoop=1;jettySize=auto;html=1;entryX=0.5;entryY=0;entryDx=0;entryDy=0;" edge="1" parent="1" source="8oeNf3qkIjY3Hb9Y6gsA-4" target="8oeNf3qkIjY3Hb9Y6gsA-14">
          <mxGeometry relative="1" as="geometry" />
        </mxCell>
        <mxCell id="8oeNf3qkIjY3Hb9Y6gsA-4" value="&lt;b&gt;API OpenLDR&lt;/b&gt;" style="html=1;whiteSpace=wrap;fillColor=#d5e8d4;strokeColor=#82b366;strokeWidth=2;" vertex="1" parent="1">
          <mxGeometry x="810" y="290" width="120" height="40" as="geometry" />
        </mxCell>
        <mxCell id="8oeNf3qkIjY3Hb9Y6gsA-8" value="&lt;b&gt;Carga Viral&lt;/b&gt;" style="html=1;whiteSpace=wrap;fillColor=#f5f5f5;strokeColor=#666666;strokeWidth=2;fontColor=#333333;" vertex="1" parent="1">
          <mxGeometry x="340" y="410" width="80" height="40" as="geometry" />
        </mxCell>
        <mxCell id="8oeNf3qkIjY3Hb9Y6gsA-22" style="edgeStyle=orthogonalEdgeStyle;rounded=0;orthogonalLoop=1;jettySize=auto;html=1;entryX=0.5;entryY=0;entryDx=0;entryDy=0;strokeWidth=1;endArrow=block;endFill=1;" edge="1" parent="1" source="8oeNf3qkIjY3Hb9Y6gsA-9" target="8oeNf3qkIjY3Hb9Y6gsA-17">
          <mxGeometry relative="1" as="geometry" />
        </mxCell>
        <mxCell id="8oeNf3qkIjY3Hb9Y6gsA-23" style="edgeStyle=orthogonalEdgeStyle;rounded=0;orthogonalLoop=1;jettySize=auto;html=1;strokeWidth=1;endArrow=block;endFill=1;" edge="1" parent="1" source="8oeNf3qkIjY3Hb9Y6gsA-9" target="8oeNf3qkIjY3Hb9Y6gsA-18">
          <mxGeometry relative="1" as="geometry" />
        </mxCell>
        <mxCell id="8oeNf3qkIjY3Hb9Y6gsA-9" value="&lt;b&gt;DPI&lt;/b&gt;" style="html=1;whiteSpace=wrap;fillColor=#fff2cc;strokeColor=#d6b656;strokeWidth=2;" vertex="1" parent="1">
          <mxGeometry x="780" y="410" width="120" height="40" as="geometry" />
        </mxCell>
        <mxCell id="8oeNf3qkIjY3Hb9Y6gsA-26" style="edgeStyle=orthogonalEdgeStyle;rounded=0;orthogonalLoop=1;jettySize=auto;html=1;entryX=0.5;entryY=0;entryDx=0;entryDy=0;strokeWidth=1;endArrow=block;endFill=1;" edge="1" parent="1" source="8oeNf3qkIjY3Hb9Y6gsA-10" target="8oeNf3qkIjY3Hb9Y6gsA-24">
          <mxGeometry relative="1" as="geometry" />
        </mxCell>
        <mxCell id="8oeNf3qkIjY3Hb9Y6gsA-27" style="edgeStyle=orthogonalEdgeStyle;rounded=0;orthogonalLoop=1;jettySize=auto;html=1;entryX=0.5;entryY=0;entryDx=0;entryDy=0;strokeWidth=1;endArrow=block;endFill=1;" edge="1" parent="1" source="8oeNf3qkIjY3Hb9Y6gsA-10" target="8oeNf3qkIjY3Hb9Y6gsA-25">
          <mxGeometry relative="1" as="geometry">
            <Array as="points">
              <mxPoint x="1290" y="360" />
            </Array>
          </mxGeometry>
        </mxCell>
        <mxCell id="8oeNf3qkIjY3Hb9Y6gsA-10" value="&lt;b&gt;Tuberculose&lt;/b&gt;" style="html=1;whiteSpace=wrap;fillColor=#ffe6cc;strokeColor=#d79b00;strokeWidth=2;" vertex="1" parent="1">
          <mxGeometry x="1160" y="340" width="80" height="40" as="geometry" />
        </mxCell>
        <mxCell id="8oeNf3qkIjY3Hb9Y6gsA-223" style="edgeStyle=orthogonalEdgeStyle;rounded=0;orthogonalLoop=1;jettySize=auto;html=1;" edge="1" parent="1" source="8oeNf3qkIjY3Hb9Y6gsA-14" target="8oeNf3qkIjY3Hb9Y6gsA-8">
          <mxGeometry relative="1" as="geometry" />
        </mxCell>
        <mxCell id="8oeNf3qkIjY3Hb9Y6gsA-226" style="edgeStyle=orthogonalEdgeStyle;rounded=0;orthogonalLoop=1;jettySize=auto;html=1;exitX=0.5;exitY=1;exitDx=0;exitDy=0;" edge="1" parent="1" source="8oeNf3qkIjY3Hb9Y6gsA-14" target="8oeNf3qkIjY3Hb9Y6gsA-15">
          <mxGeometry relative="1" as="geometry" />
        </mxCell>
        <mxCell id="8oeNf3qkIjY3Hb9Y6gsA-228" style="edgeStyle=orthogonalEdgeStyle;rounded=0;orthogonalLoop=1;jettySize=auto;html=1;entryX=0.5;entryY=0;entryDx=0;entryDy=0;" edge="1" parent="1" source="8oeNf3qkIjY3Hb9Y6gsA-14" target="8oeNf3qkIjY3Hb9Y6gsA-9">
          <mxGeometry relative="1" as="geometry" />
        </mxCell>
        <mxCell id="8oeNf3qkIjY3Hb9Y6gsA-14" value="&lt;b&gt;HIV&lt;/b&gt;" style="html=1;whiteSpace=wrap;fillColor=#f8cecc;strokeColor=#b85450;strokeWidth=2;" vertex="1" parent="1">
          <mxGeometry x="560" y="340" width="40" height="40" as="geometry" />
        </mxCell>
        <mxCell id="8oeNf3qkIjY3Hb9Y6gsA-229" style="edgeStyle=orthogonalEdgeStyle;rounded=0;orthogonalLoop=1;jettySize=auto;html=1;entryX=0.5;entryY=0;entryDx=0;entryDy=0;" edge="1" parent="1" source="8oeNf3qkIjY3Hb9Y6gsA-15" target="8oeNf3qkIjY3Hb9Y6gsA-29">
          <mxGeometry relative="1" as="geometry" />
        </mxCell>
        <mxCell id="8oeNf3qkIjY3Hb9Y6gsA-230" style="edgeStyle=orthogonalEdgeStyle;rounded=0;orthogonalLoop=1;jettySize=auto;html=1;" edge="1" parent="1" source="8oeNf3qkIjY3Hb9Y6gsA-15" target="8oeNf3qkIjY3Hb9Y6gsA-30">
          <mxGeometry relative="1" as="geometry" />
        </mxCell>
        <mxCell id="8oeNf3qkIjY3Hb9Y6gsA-231" style="edgeStyle=orthogonalEdgeStyle;rounded=0;orthogonalLoop=1;jettySize=auto;html=1;" edge="1" parent="1" source="8oeNf3qkIjY3Hb9Y6gsA-15" target="8oeNf3qkIjY3Hb9Y6gsA-28">
          <mxGeometry relative="1" as="geometry" />
        </mxCell>
        <mxCell id="8oeNf3qkIjY3Hb9Y6gsA-15" value="&lt;b&gt;Doenças Avançadas&lt;/b&gt;" style="html=1;whiteSpace=wrap;fillColor=#f8cecc;strokeColor=#b85450;strokeWidth=2;" vertex="1" parent="1">
          <mxGeometry x="520" y="410" width="120" height="40" as="geometry" />
        </mxCell>
        <mxCell id="8oeNf3qkIjY3Hb9Y6gsA-17" value="&lt;b&gt;Convencional&lt;/b&gt;" style="html=1;whiteSpace=wrap;fillColor=#fff2cc;strokeColor=#d6b656;strokeWidth=2;" vertex="1" parent="1">
          <mxGeometry x="700" y="490" width="120" height="40" as="geometry" />
        </mxCell>
        <mxCell id="8oeNf3qkIjY3Hb9Y6gsA-18" value="&lt;b&gt;Point of Care&lt;/b&gt;" style="html=1;whiteSpace=wrap;fillColor=#fff2cc;strokeColor=#d6b656;strokeWidth=2;" vertex="1" parent="1">
          <mxGeometry x="860" y="490" width="120" height="40" as="geometry" />
        </mxCell>
        <mxCell id="8oeNf3qkIjY3Hb9Y6gsA-24" value="&lt;b&gt;GXpert&lt;/b&gt;" style="html=1;whiteSpace=wrap;fillColor=#ffe6cc;strokeColor=#d79b00;strokeWidth=2;" vertex="1" parent="1">
          <mxGeometry x="1080" y="410" width="60" height="40" as="geometry" />
        </mxCell>
        <mxCell id="8oeNf3qkIjY3Hb9Y6gsA-25" value="&lt;b&gt;Cultura&lt;/b&gt;" style="html=1;whiteSpace=wrap;fillColor=#ffe6cc;strokeColor=#d79b00;strokeWidth=2;" vertex="1" parent="1">
          <mxGeometry x="1260" y="410" width="60" height="40" as="geometry" />
        </mxCell>
        <mxCell id="8oeNf3qkIjY3Hb9Y6gsA-28" value="&lt;b&gt;TBLAM&lt;/b&gt;" style="html=1;whiteSpace=wrap;fillColor=#f8cecc;strokeColor=#b85450;strokeWidth=2;" vertex="1" parent="1">
          <mxGeometry x="620" y="490" width="60" height="40" as="geometry" />
        </mxCell>
        <mxCell id="8oeNf3qkIjY3Hb9Y6gsA-29" value="&lt;b&gt;CD4&lt;/b&gt;" style="html=1;whiteSpace=wrap;fillColor=#f8cecc;strokeColor=#b85450;strokeWidth=2;" vertex="1" parent="1">
          <mxGeometry x="560" y="490" width="40" height="40" as="geometry" />
        </mxCell>
        <mxCell id="8oeNf3qkIjY3Hb9Y6gsA-30" value="&lt;b&gt;Crytococcus&lt;/b&gt;" style="html=1;whiteSpace=wrap;fillColor=#f8cecc;strokeColor=#b85450;strokeWidth=2;" vertex="1" parent="1">
          <mxGeometry x="460" y="490" width="80" height="40" as="geometry" />
        </mxCell>
        <mxCell id="8oeNf3qkIjY3Hb9Y6gsA-295" value="" style="edgeStyle=orthogonalEdgeStyle;rounded=0;orthogonalLoop=1;jettySize=auto;html=1;" edge="1" parent="1" source="8oeNf3qkIjY3Hb9Y6gsA-41" target="8oeNf3qkIjY3Hb9Y6gsA-42">
          <mxGeometry relative="1" as="geometry" />
        </mxCell>
        <mxCell id="8oeNf3qkIjY3Hb9Y6gsA-41" value="&lt;b&gt;OPENLDR DATA&lt;/b&gt;" style="html=1;whiteSpace=wrap;fillColor=#1ba1e2;strokeColor=#006EAF;fontColor=#ffffff;strokeWidth=2;" vertex="1" parent="1">
          <mxGeometry x="420" y="620" width="120" height="40" as="geometry" />
        </mxCell>
        <mxCell id="8oeNf3qkIjY3Hb9Y6gsA-296" value="" style="edgeStyle=orthogonalEdgeStyle;rounded=0;orthogonalLoop=1;jettySize=auto;html=1;" edge="1" parent="1" source="8oeNf3qkIjY3Hb9Y6gsA-42" target="8oeNf3qkIjY3Hb9Y6gsA-59">
          <mxGeometry relative="1" as="geometry" />
        </mxCell>
        <mxCell id="8oeNf3qkIjY3Hb9Y6gsA-42" value="&lt;b&gt;OPENLDR DICT&lt;/b&gt;" style="html=1;whiteSpace=wrap;fillColor=#1ba1e2;fontColor=#ffffff;strokeColor=#006EAF;strokeWidth=2;" vertex="1" parent="1">
          <mxGeometry x="600" y="620" width="120" height="40" as="geometry" />
        </mxCell>
        <mxCell id="8oeNf3qkIjY3Hb9Y6gsA-56" value="&lt;b&gt;Facilities&lt;/b&gt;" style="html=1;whiteSpace=wrap;fillColor=#dae8fc;strokeColor=#6c8ebf;strokeWidth=2;" vertex="1" parent="1">
          <mxGeometry x="1140" y="620" width="120" height="40" as="geometry" />
        </mxCell>
        <mxCell id="8oeNf3qkIjY3Hb9Y6gsA-297" value="" style="edgeStyle=orthogonalEdgeStyle;rounded=0;orthogonalLoop=1;jettySize=auto;html=1;" edge="1" parent="1" source="8oeNf3qkIjY3Hb9Y6gsA-59" target="8oeNf3qkIjY3Hb9Y6gsA-60">
          <mxGeometry relative="1" as="geometry" />
        </mxCell>
        <mxCell id="8oeNf3qkIjY3Hb9Y6gsA-59" value="&lt;b&gt;Provinces&lt;/b&gt;" style="html=1;whiteSpace=wrap;fillColor=#dae8fc;strokeColor=#6c8ebf;strokeWidth=2;" vertex="1" parent="1">
          <mxGeometry x="780" y="620" width="120" height="40" as="geometry" />
        </mxCell>
        <mxCell id="8oeNf3qkIjY3Hb9Y6gsA-298" value="" style="edgeStyle=orthogonalEdgeStyle;rounded=0;orthogonalLoop=1;jettySize=auto;html=1;" edge="1" parent="1" source="8oeNf3qkIjY3Hb9Y6gsA-60" target="8oeNf3qkIjY3Hb9Y6gsA-56">
          <mxGeometry relative="1" as="geometry" />
        </mxCell>
        <mxCell id="8oeNf3qkIjY3Hb9Y6gsA-60" value="&lt;b&gt;Districts&lt;/b&gt;" style="html=1;whiteSpace=wrap;fillColor=#dae8fc;strokeColor=#6c8ebf;strokeWidth=2;" vertex="1" parent="1">
          <mxGeometry x="960" y="620" width="120" height="40" as="geometry" />
        </mxCell>
        <mxCell id="8oeNf3qkIjY3Hb9Y6gsA-85" style="edgeStyle=orthogonalEdgeStyle;rounded=0;orthogonalLoop=1;jettySize=auto;html=1;entryX=0;entryY=0.5;entryDx=0;entryDy=0;fontStyle=1" edge="1" parent="1" source="8oeNf3qkIjY3Hb9Y6gsA-68" target="8oeNf3qkIjY3Hb9Y6gsA-78">
          <mxGeometry relative="1" as="geometry" />
        </mxCell>
        <mxCell id="8oeNf3qkIjY3Hb9Y6gsA-86" style="edgeStyle=orthogonalEdgeStyle;rounded=0;orthogonalLoop=1;jettySize=auto;html=1;entryX=0;entryY=0.5;entryDx=0;entryDy=0;fontStyle=1" edge="1" parent="1" source="8oeNf3qkIjY3Hb9Y6gsA-68" target="8oeNf3qkIjY3Hb9Y6gsA-82">
          <mxGeometry relative="1" as="geometry">
            <Array as="points">
              <mxPoint x="410" y="1110" />
              <mxPoint x="410" y="1210" />
            </Array>
          </mxGeometry>
        </mxCell>
        <mxCell id="8oeNf3qkIjY3Hb9Y6gsA-87" style="edgeStyle=orthogonalEdgeStyle;rounded=0;orthogonalLoop=1;jettySize=auto;html=1;entryX=0;entryY=0.5;entryDx=0;entryDy=0;fontStyle=1" edge="1" parent="1" source="8oeNf3qkIjY3Hb9Y6gsA-68" target="8oeNf3qkIjY3Hb9Y6gsA-81">
          <mxGeometry relative="1" as="geometry" />
        </mxCell>
        <mxCell id="8oeNf3qkIjY3Hb9Y6gsA-88" style="edgeStyle=orthogonalEdgeStyle;rounded=0;orthogonalLoop=1;jettySize=auto;html=1;entryX=0;entryY=0.5;entryDx=0;entryDy=0;fontStyle=1" edge="1" parent="1" source="8oeNf3qkIjY3Hb9Y6gsA-68" target="8oeNf3qkIjY3Hb9Y6gsA-83">
          <mxGeometry relative="1" as="geometry" />
        </mxCell>
        <mxCell id="8oeNf3qkIjY3Hb9Y6gsA-68" value="&lt;span&gt;HIV&lt;/span&gt;" style="html=1;whiteSpace=wrap;fillColor=#f8cecc;strokeColor=#b85450;strokeWidth=2;fontStyle=1" vertex="1" parent="1">
          <mxGeometry x="350" y="1090" width="40" height="40" as="geometry" />
        </mxCell>
        <mxCell id="8oeNf3qkIjY3Hb9Y6gsA-110" value="" style="edgeStyle=orthogonalEdgeStyle;rounded=0;orthogonalLoop=1;jettySize=auto;html=1;fontStyle=1" edge="1" parent="1" source="8oeNf3qkIjY3Hb9Y6gsA-72" target="8oeNf3qkIjY3Hb9Y6gsA-74">
          <mxGeometry relative="1" as="geometry" />
        </mxCell>
        <mxCell id="8oeNf3qkIjY3Hb9Y6gsA-111" style="edgeStyle=orthogonalEdgeStyle;rounded=0;orthogonalLoop=1;jettySize=auto;html=1;entryX=0;entryY=0.5;entryDx=0;entryDy=0;fontStyle=1" edge="1" parent="1" source="8oeNf3qkIjY3Hb9Y6gsA-72" target="8oeNf3qkIjY3Hb9Y6gsA-73">
          <mxGeometry relative="1" as="geometry" />
        </mxCell>
        <mxCell id="8oeNf3qkIjY3Hb9Y6gsA-112" style="edgeStyle=orthogonalEdgeStyle;rounded=0;orthogonalLoop=1;jettySize=auto;html=1;entryX=0;entryY=0.5;entryDx=0;entryDy=0;fontStyle=1" edge="1" parent="1" source="8oeNf3qkIjY3Hb9Y6gsA-72" target="8oeNf3qkIjY3Hb9Y6gsA-75">
          <mxGeometry relative="1" as="geometry" />
        </mxCell>
        <mxCell id="8oeNf3qkIjY3Hb9Y6gsA-72" value="&lt;span&gt;Doenças Avançadas&lt;/span&gt;&lt;div&gt;&lt;span&gt;(da)&lt;/span&gt;&lt;/div&gt;" style="html=1;whiteSpace=wrap;fillColor=#f8cecc;strokeColor=#b85450;strokeWidth=2;fontStyle=1;" vertex="1" parent="1">
          <mxGeometry x="730" y="1090" width="120" height="40" as="geometry" />
        </mxCell>
        <mxCell id="8oeNf3qkIjY3Hb9Y6gsA-284" style="edgeStyle=orthogonalEdgeStyle;rounded=0;orthogonalLoop=1;jettySize=auto;html=1;entryX=0;entryY=0.5;entryDx=0;entryDy=0;" edge="1" parent="1" source="8oeNf3qkIjY3Hb9Y6gsA-73" target="8oeNf3qkIjY3Hb9Y6gsA-93">
          <mxGeometry relative="1" as="geometry" />
        </mxCell>
        <mxCell id="8oeNf3qkIjY3Hb9Y6gsA-288" style="edgeStyle=orthogonalEdgeStyle;rounded=0;orthogonalLoop=1;jettySize=auto;html=1;entryX=0;entryY=0.5;entryDx=0;entryDy=0;" edge="1" parent="1" source="8oeNf3qkIjY3Hb9Y6gsA-73" target="8oeNf3qkIjY3Hb9Y6gsA-92">
          <mxGeometry relative="1" as="geometry" />
        </mxCell>
        <mxCell id="8oeNf3qkIjY3Hb9Y6gsA-73" value="&lt;span&gt;TBLAM&lt;/span&gt;&lt;div&gt;&lt;span style=&quot;background-color: initial;&quot;&gt;(tblam)&lt;/span&gt;&lt;/div&gt;" style="html=1;whiteSpace=wrap;fillColor=#f8cecc;strokeColor=#b85450;strokeWidth=2;fontStyle=1" vertex="1" parent="1">
          <mxGeometry x="890" y="1050" width="120" height="40" as="geometry" />
        </mxCell>
        <mxCell id="8oeNf3qkIjY3Hb9Y6gsA-285" style="edgeStyle=orthogonalEdgeStyle;rounded=0;orthogonalLoop=1;jettySize=auto;html=1;entryX=0;entryY=0.5;entryDx=0;entryDy=0;" edge="1" parent="1" source="8oeNf3qkIjY3Hb9Y6gsA-74" target="8oeNf3qkIjY3Hb9Y6gsA-92">
          <mxGeometry relative="1" as="geometry" />
        </mxCell>
        <mxCell id="8oeNf3qkIjY3Hb9Y6gsA-286" style="edgeStyle=orthogonalEdgeStyle;rounded=0;orthogonalLoop=1;jettySize=auto;html=1;" edge="1" parent="1" source="8oeNf3qkIjY3Hb9Y6gsA-74" target="8oeNf3qkIjY3Hb9Y6gsA-94">
          <mxGeometry relative="1" as="geometry" />
        </mxCell>
        <mxCell id="8oeNf3qkIjY3Hb9Y6gsA-74" value="&lt;span&gt;CD4&lt;/span&gt;&lt;div&gt;&lt;span style=&quot;background-color: initial;&quot;&gt;(cd4)&lt;/span&gt;&lt;/div&gt;" style="html=1;whiteSpace=wrap;fillColor=#f8cecc;strokeColor=#b85450;strokeWidth=2;fontStyle=1" vertex="1" parent="1">
          <mxGeometry x="890" y="1090" width="120" height="40" as="geometry" />
        </mxCell>
        <mxCell id="8oeNf3qkIjY3Hb9Y6gsA-287" style="edgeStyle=orthogonalEdgeStyle;rounded=0;orthogonalLoop=1;jettySize=auto;html=1;" edge="1" parent="1" source="8oeNf3qkIjY3Hb9Y6gsA-75" target="8oeNf3qkIjY3Hb9Y6gsA-95">
          <mxGeometry relative="1" as="geometry" />
        </mxCell>
        <mxCell id="8oeNf3qkIjY3Hb9Y6gsA-289" style="edgeStyle=orthogonalEdgeStyle;rounded=0;orthogonalLoop=1;jettySize=auto;html=1;entryX=0;entryY=0.5;entryDx=0;entryDy=0;" edge="1" parent="1" source="8oeNf3qkIjY3Hb9Y6gsA-75" target="8oeNf3qkIjY3Hb9Y6gsA-94">
          <mxGeometry relative="1" as="geometry" />
        </mxCell>
        <mxCell id="8oeNf3qkIjY3Hb9Y6gsA-75" value="&lt;span&gt;CRYTOCOCCUS&lt;/span&gt;&lt;div&gt;&lt;span&gt;(crag)&lt;/span&gt;&lt;/div&gt;" style="html=1;whiteSpace=wrap;fillColor=#f8cecc;strokeColor=#b85450;strokeWidth=2;fontStyle=1" vertex="1" parent="1">
          <mxGeometry x="890" y="1130" width="120" height="40" as="geometry" />
        </mxCell>
        <mxCell id="8oeNf3qkIjY3Hb9Y6gsA-103" value="" style="edgeStyle=orthogonalEdgeStyle;rounded=0;orthogonalLoop=1;jettySize=auto;html=1;fontStyle=1" edge="1" parent="1" source="8oeNf3qkIjY3Hb9Y6gsA-78" target="8oeNf3qkIjY3Hb9Y6gsA-79">
          <mxGeometry relative="1" as="geometry" />
        </mxCell>
        <mxCell id="8oeNf3qkIjY3Hb9Y6gsA-78" value="GET" style="html=1;whiteSpace=wrap;fillColor=#d5e8d4;strokeColor=#82b366;rounded=1;arcSize=50;fontStyle=1" vertex="1" parent="1">
          <mxGeometry x="430" y="990" width="40" height="40" as="geometry" />
        </mxCell>
        <mxCell id="8oeNf3qkIjY3Hb9Y6gsA-107" style="edgeStyle=orthogonalEdgeStyle;rounded=0;orthogonalLoop=1;jettySize=auto;html=1;entryX=0;entryY=0.5;entryDx=0;entryDy=0;fontStyle=1" edge="1" parent="1" source="8oeNf3qkIjY3Hb9Y6gsA-79" target="8oeNf3qkIjY3Hb9Y6gsA-72">
          <mxGeometry relative="1" as="geometry" />
        </mxCell>
        <mxCell id="8oeNf3qkIjY3Hb9Y6gsA-79" value="Rotas" style="html=1;whiteSpace=wrap;fillColor=#d5e8d4;strokeColor=#82b366;fontStyle=1" vertex="1" parent="1">
          <mxGeometry x="510" y="990" width="160" height="40" as="geometry" />
        </mxCell>
        <mxCell id="8oeNf3qkIjY3Hb9Y6gsA-102" value="" style="edgeStyle=orthogonalEdgeStyle;rounded=0;orthogonalLoop=1;jettySize=auto;html=1;fontStyle=1" edge="1" parent="1" source="8oeNf3qkIjY3Hb9Y6gsA-81" target="8oeNf3qkIjY3Hb9Y6gsA-91">
          <mxGeometry relative="1" as="geometry" />
        </mxCell>
        <mxCell id="8oeNf3qkIjY3Hb9Y6gsA-81" value="POST" style="html=1;whiteSpace=wrap;fillColor=#ffe6cc;strokeColor=#d79b00;rounded=1;arcSize=50;fontStyle=1" vertex="1" parent="1">
          <mxGeometry x="430" y="790" width="40" height="40" as="geometry" />
        </mxCell>
        <mxCell id="8oeNf3qkIjY3Hb9Y6gsA-104" value="" style="edgeStyle=orthogonalEdgeStyle;rounded=0;orthogonalLoop=1;jettySize=auto;html=1;fontStyle=1" edge="1" parent="1" source="8oeNf3qkIjY3Hb9Y6gsA-82" target="8oeNf3qkIjY3Hb9Y6gsA-89">
          <mxGeometry relative="1" as="geometry" />
        </mxCell>
        <mxCell id="8oeNf3qkIjY3Hb9Y6gsA-82" value="PUT" style="html=1;whiteSpace=wrap;fillColor=#dae8fc;strokeColor=#6c8ebf;rounded=1;arcSize=50;fontStyle=1" vertex="1" parent="1">
          <mxGeometry x="430" y="1190" width="40" height="40" as="geometry" />
        </mxCell>
        <mxCell id="8oeNf3qkIjY3Hb9Y6gsA-105" value="" style="edgeStyle=orthogonalEdgeStyle;rounded=0;orthogonalLoop=1;jettySize=auto;html=1;fontStyle=1" edge="1" parent="1" source="8oeNf3qkIjY3Hb9Y6gsA-83" target="8oeNf3qkIjY3Hb9Y6gsA-90">
          <mxGeometry relative="1" as="geometry" />
        </mxCell>
        <mxCell id="8oeNf3qkIjY3Hb9Y6gsA-83" value="DEL" style="html=1;whiteSpace=wrap;fillColor=#f8cecc;strokeColor=#b85450;rounded=1;arcSize=50;fontStyle=1" vertex="1" parent="1">
          <mxGeometry x="430" y="1390" width="40" height="40" as="geometry" />
        </mxCell>
        <mxCell id="8oeNf3qkIjY3Hb9Y6gsA-108" style="edgeStyle=orthogonalEdgeStyle;rounded=0;orthogonalLoop=1;jettySize=auto;html=1;entryX=0;entryY=0.5;entryDx=0;entryDy=0;fontStyle=1" edge="1" parent="1" source="8oeNf3qkIjY3Hb9Y6gsA-89" target="8oeNf3qkIjY3Hb9Y6gsA-72">
          <mxGeometry relative="1" as="geometry" />
        </mxCell>
        <mxCell id="8oeNf3qkIjY3Hb9Y6gsA-89" value="Rotas" style="html=1;whiteSpace=wrap;fillColor=#dae8fc;strokeColor=#6c8ebf;fontStyle=1" vertex="1" parent="1">
          <mxGeometry x="510" y="1190" width="160" height="40" as="geometry" />
        </mxCell>
        <mxCell id="8oeNf3qkIjY3Hb9Y6gsA-109" style="edgeStyle=orthogonalEdgeStyle;rounded=0;orthogonalLoop=1;jettySize=auto;html=1;entryX=0;entryY=0.5;entryDx=0;entryDy=0;fontStyle=1" edge="1" parent="1" source="8oeNf3qkIjY3Hb9Y6gsA-90" target="8oeNf3qkIjY3Hb9Y6gsA-72">
          <mxGeometry relative="1" as="geometry" />
        </mxCell>
        <mxCell id="8oeNf3qkIjY3Hb9Y6gsA-237" style="edgeStyle=orthogonalEdgeStyle;rounded=0;orthogonalLoop=1;jettySize=auto;html=1;entryX=0;entryY=0.5;entryDx=0;entryDy=0;" edge="1" parent="1" source="8oeNf3qkIjY3Hb9Y6gsA-90" target="8oeNf3qkIjY3Hb9Y6gsA-235">
          <mxGeometry relative="1" as="geometry" />
        </mxCell>
        <mxCell id="8oeNf3qkIjY3Hb9Y6gsA-90" value="Rotas" style="html=1;whiteSpace=wrap;fillColor=#f8cecc;strokeColor=#b85450;fontStyle=1" vertex="1" parent="1">
          <mxGeometry x="510" y="1390" width="160" height="40" as="geometry" />
        </mxCell>
        <mxCell id="8oeNf3qkIjY3Hb9Y6gsA-106" style="edgeStyle=orthogonalEdgeStyle;rounded=0;orthogonalLoop=1;jettySize=auto;html=1;entryX=0;entryY=0.5;entryDx=0;entryDy=0;fontStyle=1" edge="1" parent="1" source="8oeNf3qkIjY3Hb9Y6gsA-91" target="8oeNf3qkIjY3Hb9Y6gsA-72">
          <mxGeometry relative="1" as="geometry" />
        </mxCell>
        <mxCell id="8oeNf3qkIjY3Hb9Y6gsA-236" style="edgeStyle=orthogonalEdgeStyle;rounded=0;orthogonalLoop=1;jettySize=auto;html=1;entryX=0;entryY=0.5;entryDx=0;entryDy=0;" edge="1" parent="1" source="8oeNf3qkIjY3Hb9Y6gsA-91" target="8oeNf3qkIjY3Hb9Y6gsA-234">
          <mxGeometry relative="1" as="geometry" />
        </mxCell>
        <mxCell id="8oeNf3qkIjY3Hb9Y6gsA-91" value="Rotas" style="html=1;whiteSpace=wrap;fillColor=#ffe6cc;strokeColor=#d79b00;fontStyle=1" vertex="1" parent="1">
          <mxGeometry x="510" y="790" width="160" height="40" as="geometry" />
        </mxCell>
        <mxCell id="8oeNf3qkIjY3Hb9Y6gsA-131" style="edgeStyle=orthogonalEdgeStyle;rounded=0;orthogonalLoop=1;jettySize=auto;html=1;fontStyle=1" edge="1" parent="1" source="8oeNf3qkIjY3Hb9Y6gsA-92" target="8oeNf3qkIjY3Hb9Y6gsA-96">
          <mxGeometry relative="1" as="geometry" />
        </mxCell>
        <mxCell id="8oeNf3qkIjY3Hb9Y6gsA-92" value="GET" style="html=1;whiteSpace=wrap;fillColor=#d5e8d4;strokeColor=#82b366;rounded=1;arcSize=50;fontStyle=1" vertex="1" parent="1">
          <mxGeometry x="1090" y="1070" width="40" height="40" as="geometry" />
        </mxCell>
        <mxCell id="8oeNf3qkIjY3Hb9Y6gsA-130" style="edgeStyle=orthogonalEdgeStyle;rounded=0;orthogonalLoop=1;jettySize=auto;html=1;fontStyle=1" edge="1" parent="1" source="8oeNf3qkIjY3Hb9Y6gsA-93" target="8oeNf3qkIjY3Hb9Y6gsA-99">
          <mxGeometry relative="1" as="geometry" />
        </mxCell>
        <mxCell id="8oeNf3qkIjY3Hb9Y6gsA-93" value="POST" style="html=1;whiteSpace=wrap;fillColor=#ffe6cc;strokeColor=#d79b00;rounded=1;arcSize=50;fontStyle=1" vertex="1" parent="1">
          <mxGeometry x="1090" y="1030" width="40" height="40" as="geometry" />
        </mxCell>
        <mxCell id="8oeNf3qkIjY3Hb9Y6gsA-132" style="edgeStyle=orthogonalEdgeStyle;rounded=0;orthogonalLoop=1;jettySize=auto;html=1;entryX=0;entryY=0.5;entryDx=0;entryDy=0;fontStyle=1" edge="1" parent="1" source="8oeNf3qkIjY3Hb9Y6gsA-94" target="8oeNf3qkIjY3Hb9Y6gsA-97">
          <mxGeometry relative="1" as="geometry" />
        </mxCell>
        <mxCell id="8oeNf3qkIjY3Hb9Y6gsA-94" value="PUT" style="html=1;whiteSpace=wrap;fillColor=#dae8fc;strokeColor=#6c8ebf;rounded=1;arcSize=50;fontStyle=1" vertex="1" parent="1">
          <mxGeometry x="1090" y="1110" width="40" height="40" as="geometry" />
        </mxCell>
        <mxCell id="8oeNf3qkIjY3Hb9Y6gsA-133" style="edgeStyle=orthogonalEdgeStyle;rounded=0;orthogonalLoop=1;jettySize=auto;html=1;fontStyle=1" edge="1" parent="1" source="8oeNf3qkIjY3Hb9Y6gsA-95" target="8oeNf3qkIjY3Hb9Y6gsA-98">
          <mxGeometry relative="1" as="geometry" />
        </mxCell>
        <mxCell id="8oeNf3qkIjY3Hb9Y6gsA-95" value="DEL" style="html=1;whiteSpace=wrap;fillColor=#f8cecc;strokeColor=#b85450;rounded=1;arcSize=50;fontStyle=1" vertex="1" parent="1">
          <mxGeometry x="1090" y="1150" width="40" height="40" as="geometry" />
        </mxCell>
        <mxCell id="8oeNf3qkIjY3Hb9Y6gsA-96" value="Rotas" style="html=1;whiteSpace=wrap;fillColor=#d5e8d4;strokeColor=#82b366;fontStyle=1" vertex="1" parent="1">
          <mxGeometry x="1170" y="1070" width="160" height="40" as="geometry" />
        </mxCell>
        <mxCell id="8oeNf3qkIjY3Hb9Y6gsA-97" value="Rotas" style="html=1;whiteSpace=wrap;fillColor=#dae8fc;strokeColor=#6c8ebf;fontStyle=1" vertex="1" parent="1">
          <mxGeometry x="1170" y="1110" width="160" height="40" as="geometry" />
        </mxCell>
        <mxCell id="8oeNf3qkIjY3Hb9Y6gsA-98" value="Rotas" style="html=1;whiteSpace=wrap;fillColor=#f8cecc;strokeColor=#b85450;fontStyle=1" vertex="1" parent="1">
          <mxGeometry x="1170" y="1150" width="160" height="40" as="geometry" />
        </mxCell>
        <mxCell id="8oeNf3qkIjY3Hb9Y6gsA-99" value="Rotas" style="html=1;whiteSpace=wrap;fillColor=#ffe6cc;strokeColor=#d79b00;fontStyle=1" vertex="1" parent="1">
          <mxGeometry x="1170" y="1030" width="160" height="40" as="geometry" />
        </mxCell>
        <mxCell id="8oeNf3qkIjY3Hb9Y6gsA-192" style="edgeStyle=orthogonalEdgeStyle;rounded=0;orthogonalLoop=1;jettySize=auto;html=1;entryX=0;entryY=0.5;entryDx=0;entryDy=0;fontStyle=1" edge="1" source="8oeNf3qkIjY3Hb9Y6gsA-194" target="8oeNf3qkIjY3Hb9Y6gsA-199" parent="1">
          <mxGeometry relative="1" as="geometry" />
        </mxCell>
        <mxCell id="8oeNf3qkIjY3Hb9Y6gsA-193" style="edgeStyle=orthogonalEdgeStyle;rounded=0;orthogonalLoop=1;jettySize=auto;html=1;entryX=0;entryY=0.5;entryDx=0;entryDy=0;fontStyle=1" edge="1" source="8oeNf3qkIjY3Hb9Y6gsA-194" target="8oeNf3qkIjY3Hb9Y6gsA-205" parent="1">
          <mxGeometry relative="1" as="geometry" />
        </mxCell>
        <mxCell id="8oeNf3qkIjY3Hb9Y6gsA-194" value="&lt;span&gt;Tuberculose (tb)&lt;/span&gt;" style="html=1;whiteSpace=wrap;fillColor=#ffe6cc;strokeColor=#d79b00;strokeWidth=2;fontStyle=1" vertex="1" parent="1">
          <mxGeometry x="470" y="1690" width="120" height="40" as="geometry" />
        </mxCell>
        <mxCell id="8oeNf3qkIjY3Hb9Y6gsA-195" style="edgeStyle=orthogonalEdgeStyle;rounded=0;orthogonalLoop=1;jettySize=auto;html=1;entryX=0;entryY=0.5;entryDx=0;entryDy=0;fontStyle=1" edge="1" source="8oeNf3qkIjY3Hb9Y6gsA-199" target="8oeNf3qkIjY3Hb9Y6gsA-209" parent="1">
          <mxGeometry relative="1" as="geometry" />
        </mxCell>
        <mxCell id="8oeNf3qkIjY3Hb9Y6gsA-196" style="edgeStyle=orthogonalEdgeStyle;rounded=0;orthogonalLoop=1;jettySize=auto;html=1;entryX=0;entryY=0.5;entryDx=0;entryDy=0;fontStyle=1" edge="1" source="8oeNf3qkIjY3Hb9Y6gsA-199" target="8oeNf3qkIjY3Hb9Y6gsA-207" parent="1">
          <mxGeometry relative="1" as="geometry" />
        </mxCell>
        <mxCell id="8oeNf3qkIjY3Hb9Y6gsA-197" style="edgeStyle=orthogonalEdgeStyle;rounded=0;orthogonalLoop=1;jettySize=auto;html=1;entryX=0;entryY=0.5;entryDx=0;entryDy=0;fontStyle=1" edge="1" source="8oeNf3qkIjY3Hb9Y6gsA-199" target="8oeNf3qkIjY3Hb9Y6gsA-211" parent="1">
          <mxGeometry relative="1" as="geometry" />
        </mxCell>
        <mxCell id="8oeNf3qkIjY3Hb9Y6gsA-198" style="edgeStyle=orthogonalEdgeStyle;rounded=0;orthogonalLoop=1;jettySize=auto;html=1;entryX=0;entryY=0.5;entryDx=0;entryDy=0;fontStyle=1" edge="1" source="8oeNf3qkIjY3Hb9Y6gsA-199" target="8oeNf3qkIjY3Hb9Y6gsA-213" parent="1">
          <mxGeometry relative="1" as="geometry" />
        </mxCell>
        <mxCell id="8oeNf3qkIjY3Hb9Y6gsA-199" value="&lt;span&gt;GXPert (gx)&lt;/span&gt;" style="html=1;whiteSpace=wrap;fillColor=#ffe6cc;strokeColor=#d79b00;strokeWidth=2;fontStyle=1" vertex="1" parent="1">
          <mxGeometry x="630" y="1610" width="120" height="40" as="geometry" />
        </mxCell>
        <mxCell id="8oeNf3qkIjY3Hb9Y6gsA-200" style="edgeStyle=orthogonalEdgeStyle;rounded=0;orthogonalLoop=1;jettySize=auto;html=1;entryX=0;entryY=0.5;entryDx=0;entryDy=0;fontStyle=1" edge="1" source="8oeNf3qkIjY3Hb9Y6gsA-205" target="8oeNf3qkIjY3Hb9Y6gsA-209" parent="1">
          <mxGeometry relative="1" as="geometry" />
        </mxCell>
        <mxCell id="8oeNf3qkIjY3Hb9Y6gsA-201" style="edgeStyle=orthogonalEdgeStyle;rounded=0;orthogonalLoop=1;jettySize=auto;html=1;entryX=0;entryY=0.5;entryDx=0;entryDy=0;fontStyle=1" edge="1" source="8oeNf3qkIjY3Hb9Y6gsA-205" target="8oeNf3qkIjY3Hb9Y6gsA-209" parent="1">
          <mxGeometry relative="1" as="geometry" />
        </mxCell>
        <mxCell id="8oeNf3qkIjY3Hb9Y6gsA-202" style="edgeStyle=orthogonalEdgeStyle;rounded=0;orthogonalLoop=1;jettySize=auto;html=1;entryX=0;entryY=0.5;entryDx=0;entryDy=0;fontStyle=1" edge="1" source="8oeNf3qkIjY3Hb9Y6gsA-205" target="8oeNf3qkIjY3Hb9Y6gsA-207" parent="1">
          <mxGeometry relative="1" as="geometry" />
        </mxCell>
        <mxCell id="8oeNf3qkIjY3Hb9Y6gsA-203" style="edgeStyle=orthogonalEdgeStyle;rounded=0;orthogonalLoop=1;jettySize=auto;html=1;entryX=0;entryY=0.5;entryDx=0;entryDy=0;fontStyle=1" edge="1" source="8oeNf3qkIjY3Hb9Y6gsA-205" target="8oeNf3qkIjY3Hb9Y6gsA-211" parent="1">
          <mxGeometry relative="1" as="geometry" />
        </mxCell>
        <mxCell id="8oeNf3qkIjY3Hb9Y6gsA-204" style="edgeStyle=orthogonalEdgeStyle;rounded=0;orthogonalLoop=1;jettySize=auto;html=1;entryX=0;entryY=0.5;entryDx=0;entryDy=0;fontStyle=1" edge="1" source="8oeNf3qkIjY3Hb9Y6gsA-205" target="8oeNf3qkIjY3Hb9Y6gsA-213" parent="1">
          <mxGeometry relative="1" as="geometry" />
        </mxCell>
        <mxCell id="8oeNf3qkIjY3Hb9Y6gsA-205" value="&lt;span&gt;Cultura (ct)&lt;/span&gt;" style="html=1;whiteSpace=wrap;fillColor=#ffe6cc;strokeColor=#d79b00;strokeWidth=2;fontStyle=1" vertex="1" parent="1">
          <mxGeometry x="630" y="1770" width="120" height="40" as="geometry" />
        </mxCell>
        <mxCell id="8oeNf3qkIjY3Hb9Y6gsA-206" style="edgeStyle=orthogonalEdgeStyle;rounded=0;orthogonalLoop=1;jettySize=auto;html=1;fontStyle=1" edge="1" source="8oeNf3qkIjY3Hb9Y6gsA-207" target="8oeNf3qkIjY3Hb9Y6gsA-214" parent="1">
          <mxGeometry relative="1" as="geometry" />
        </mxCell>
        <mxCell id="8oeNf3qkIjY3Hb9Y6gsA-207" value="GET" style="html=1;whiteSpace=wrap;fillColor=#d5e8d4;strokeColor=#82b366;rounded=1;arcSize=50;fontStyle=1" vertex="1" parent="1">
          <mxGeometry x="790" y="1650" width="40" height="40" as="geometry" />
        </mxCell>
        <mxCell id="8oeNf3qkIjY3Hb9Y6gsA-208" style="edgeStyle=orthogonalEdgeStyle;rounded=0;orthogonalLoop=1;jettySize=auto;html=1;fontStyle=1" edge="1" source="8oeNf3qkIjY3Hb9Y6gsA-209" target="8oeNf3qkIjY3Hb9Y6gsA-217" parent="1">
          <mxGeometry relative="1" as="geometry" />
        </mxCell>
        <mxCell id="8oeNf3qkIjY3Hb9Y6gsA-209" value="POST" style="html=1;whiteSpace=wrap;fillColor=#ffe6cc;strokeColor=#d79b00;rounded=1;arcSize=50;fontStyle=1" vertex="1" parent="1">
          <mxGeometry x="790" y="1570" width="40" height="40" as="geometry" />
        </mxCell>
        <mxCell id="8oeNf3qkIjY3Hb9Y6gsA-210" style="edgeStyle=orthogonalEdgeStyle;rounded=0;orthogonalLoop=1;jettySize=auto;html=1;entryX=0;entryY=0.5;entryDx=0;entryDy=0;fontStyle=1" edge="1" source="8oeNf3qkIjY3Hb9Y6gsA-211" target="8oeNf3qkIjY3Hb9Y6gsA-215" parent="1">
          <mxGeometry relative="1" as="geometry" />
        </mxCell>
        <mxCell id="8oeNf3qkIjY3Hb9Y6gsA-211" value="PUT" style="html=1;whiteSpace=wrap;fillColor=#dae8fc;strokeColor=#6c8ebf;rounded=1;arcSize=50;fontStyle=1" vertex="1" parent="1">
          <mxGeometry x="790" y="1730" width="40" height="40" as="geometry" />
        </mxCell>
        <mxCell id="8oeNf3qkIjY3Hb9Y6gsA-212" style="edgeStyle=orthogonalEdgeStyle;rounded=0;orthogonalLoop=1;jettySize=auto;html=1;fontStyle=1" edge="1" source="8oeNf3qkIjY3Hb9Y6gsA-213" target="8oeNf3qkIjY3Hb9Y6gsA-216" parent="1">
          <mxGeometry relative="1" as="geometry" />
        </mxCell>
        <mxCell id="8oeNf3qkIjY3Hb9Y6gsA-213" value="DEL" style="html=1;whiteSpace=wrap;fillColor=#f8cecc;strokeColor=#b85450;rounded=1;arcSize=50;fontStyle=1" vertex="1" parent="1">
          <mxGeometry x="790" y="1810" width="40" height="40" as="geometry" />
        </mxCell>
        <mxCell id="8oeNf3qkIjY3Hb9Y6gsA-214" value="Rotas" style="html=1;whiteSpace=wrap;fillColor=#d5e8d4;strokeColor=#82b366;fontStyle=1" vertex="1" parent="1">
          <mxGeometry x="870" y="1650" width="160" height="40" as="geometry" />
        </mxCell>
        <mxCell id="8oeNf3qkIjY3Hb9Y6gsA-215" value="Rotas" style="html=1;whiteSpace=wrap;fillColor=#dae8fc;strokeColor=#6c8ebf;fontStyle=1" vertex="1" parent="1">
          <mxGeometry x="870" y="1730" width="160" height="40" as="geometry" />
        </mxCell>
        <mxCell id="8oeNf3qkIjY3Hb9Y6gsA-216" value="Rotas" style="html=1;whiteSpace=wrap;fillColor=#f8cecc;strokeColor=#b85450;fontStyle=1" vertex="1" parent="1">
          <mxGeometry x="870" y="1810" width="160" height="40" as="geometry" />
        </mxCell>
        <mxCell id="8oeNf3qkIjY3Hb9Y6gsA-217" value="Rotas" style="html=1;whiteSpace=wrap;fillColor=#ffe6cc;strokeColor=#d79b00;fontStyle=1" vertex="1" parent="1">
          <mxGeometry x="870" y="1570" width="160" height="40" as="geometry" />
        </mxCell>
        <mxCell id="8oeNf3qkIjY3Hb9Y6gsA-218" value="&lt;font style=&quot;font-size: 16px;&quot;&gt;DIAGRAMA DE COMPONENTES (HIV)&lt;/font&gt;" style="text;align=center;fontStyle=1;verticalAlign=middle;spacingLeft=3;spacingRight=3;strokeColor=none;rotatable=0;points=[[0,0.5],[1,0.5]];portConstraint=eastwest;html=1;fontSize=14;" vertex="1" parent="1">
          <mxGeometry x="720" y="730" width="310" height="40" as="geometry" />
        </mxCell>
        <mxCell id="8oeNf3qkIjY3Hb9Y6gsA-220" value="DIAGRAMA DE COMPONENTES (TUBERCULOSE&lt;span style=&quot;color: rgba(0, 0, 0, 0); font-family: monospace; font-weight: 400; text-align: start; font-size: 0px;&quot;&gt;%3CmxGraphModel%3E%3Croot%3E%3CmxCell%20id%3D%220%22%2F%3E%3CmxCell%20id%3D%221%22%20parent%3D%220%22%2F%3E%3CmxCell%20id%3D%222%22%20value%3D%22DIAGRAMA%20DE%20COMPONENTES%20(Carga%20Viral)%22%20style%3D%22text%3Balign%3Dcenter%3BfontStyle%3D1%3BverticalAlign%3Dmiddle%3BspacingLeft%3D3%3BspacingRight%3D3%3BstrokeColor%3Dnone%3Brotatable%3D0%3Bpoints%3D%5B%5B0%2C0.5%5D%2C%5B1%2C0.5%5D%5D%3BportConstraint%3Deastwest%3Bhtml%3D1%3BfontSize%3D14%3B%22%20vertex%3D%221%22%20parent%3D%221%22%3E%3CmxGeometry%20x%3D%22530%22%20y%3D%221130%22%20width%3D%22300%22%20height%3D%2230%22%20as%3D%22geometry%22%2F%3E%3C%2FmxCell%3E%3C%2Froot%3E%3C%2FmxGraphModel%3E&lt;/span&gt;)" style="text;align=center;fontStyle=1;verticalAlign=middle;spacingLeft=3;spacingRight=3;strokeColor=none;rotatable=0;points=[[0,0.5],[1,0.5]];portConstraint=eastwest;html=1;fontSize=14;" vertex="1" parent="1">
          <mxGeometry x="635" y="1490" width="350" height="40" as="geometry" />
        </mxCell>
        <mxCell id="8oeNf3qkIjY3Hb9Y6gsA-222" value="" style="edgeStyle=orthogonalEdgeStyle;rounded=0;orthogonalLoop=1;jettySize=auto;html=1;" edge="1" parent="1" source="8oeNf3qkIjY3Hb9Y6gsA-221" target="8oeNf3qkIjY3Hb9Y6gsA-4">
          <mxGeometry relative="1" as="geometry" />
        </mxCell>
        <mxCell id="8oeNf3qkIjY3Hb9Y6gsA-221" value="&lt;b&gt;Autenticação&lt;/b&gt;" style="html=1;whiteSpace=wrap;fillColor=#d5e8d4;strokeColor=#82b366;strokeWidth=2;" vertex="1" parent="1">
          <mxGeometry x="810" y="210" width="120" height="40" as="geometry" />
        </mxCell>
        <mxCell id="8oeNf3qkIjY3Hb9Y6gsA-280" style="edgeStyle=orthogonalEdgeStyle;rounded=0;orthogonalLoop=1;jettySize=auto;html=1;entryX=0;entryY=0.5;entryDx=0;entryDy=0;" edge="1" parent="1" source="8oeNf3qkIjY3Hb9Y6gsA-234" target="8oeNf3qkIjY3Hb9Y6gsA-271">
          <mxGeometry relative="1" as="geometry">
            <Array as="points">
              <mxPoint x="1050" y="910" />
              <mxPoint x="1050" y="850" />
            </Array>
          </mxGeometry>
        </mxCell>
        <mxCell id="8oeNf3qkIjY3Hb9Y6gsA-281" style="edgeStyle=orthogonalEdgeStyle;rounded=0;orthogonalLoop=1;jettySize=auto;html=1;entryX=0;entryY=0.5;entryDx=0;entryDy=0;" edge="1" parent="1" source="8oeNf3qkIjY3Hb9Y6gsA-234" target="8oeNf3qkIjY3Hb9Y6gsA-269">
          <mxGeometry relative="1" as="geometry">
            <Array as="points">
              <mxPoint x="1050" y="910" />
              <mxPoint x="1050" y="890" />
            </Array>
          </mxGeometry>
        </mxCell>
        <mxCell id="8oeNf3qkIjY3Hb9Y6gsA-282" style="edgeStyle=orthogonalEdgeStyle;rounded=0;orthogonalLoop=1;jettySize=auto;html=1;" edge="1" parent="1" source="8oeNf3qkIjY3Hb9Y6gsA-234" target="8oeNf3qkIjY3Hb9Y6gsA-273">
          <mxGeometry relative="1" as="geometry">
            <Array as="points">
              <mxPoint x="1050" y="910" />
              <mxPoint x="1050" y="930" />
            </Array>
          </mxGeometry>
        </mxCell>
        <mxCell id="8oeNf3qkIjY3Hb9Y6gsA-283" style="edgeStyle=orthogonalEdgeStyle;rounded=0;orthogonalLoop=1;jettySize=auto;html=1;entryX=0;entryY=0.5;entryDx=0;entryDy=0;" edge="1" parent="1" source="8oeNf3qkIjY3Hb9Y6gsA-234" target="8oeNf3qkIjY3Hb9Y6gsA-275">
          <mxGeometry relative="1" as="geometry">
            <Array as="points">
              <mxPoint x="1050" y="910" />
              <mxPoint x="1050" y="970" />
            </Array>
          </mxGeometry>
        </mxCell>
        <mxCell id="8oeNf3qkIjY3Hb9Y6gsA-234" value="&lt;span&gt;Carga Viral&amp;nbsp;&lt;/span&gt;&lt;div&gt;&lt;span&gt;(cv)&lt;/span&gt;&lt;/div&gt;" style="html=1;whiteSpace=wrap;fillColor=#f5f5f5;strokeColor=#666666;strokeWidth=2;fontStyle=1;fontColor=#333333;" vertex="1" parent="1">
          <mxGeometry x="730" y="890" width="120" height="40" as="geometry" />
        </mxCell>
        <mxCell id="8oeNf3qkIjY3Hb9Y6gsA-240" style="edgeStyle=orthogonalEdgeStyle;rounded=0;orthogonalLoop=1;jettySize=auto;html=1;entryX=0;entryY=0.5;entryDx=0;entryDy=0;" edge="1" parent="1" source="8oeNf3qkIjY3Hb9Y6gsA-235" target="8oeNf3qkIjY3Hb9Y6gsA-238">
          <mxGeometry relative="1" as="geometry" />
        </mxCell>
        <mxCell id="8oeNf3qkIjY3Hb9Y6gsA-241" style="edgeStyle=orthogonalEdgeStyle;rounded=0;orthogonalLoop=1;jettySize=auto;html=1;entryX=0;entryY=0.5;entryDx=0;entryDy=0;" edge="1" parent="1" source="8oeNf3qkIjY3Hb9Y6gsA-235" target="8oeNf3qkIjY3Hb9Y6gsA-239">
          <mxGeometry relative="1" as="geometry" />
        </mxCell>
        <mxCell id="8oeNf3qkIjY3Hb9Y6gsA-235" value="&lt;span&gt;DPI&amp;nbsp;&lt;/span&gt;&lt;div&gt;&lt;span&gt;(dpi)&lt;/span&gt;&lt;/div&gt;" style="html=1;whiteSpace=wrap;fillColor=#fff2cc;strokeColor=#d6b656;strokeWidth=2;fontStyle=1" vertex="1" parent="1">
          <mxGeometry x="730" y="1290" width="120" height="40" as="geometry" />
        </mxCell>
        <mxCell id="8oeNf3qkIjY3Hb9Y6gsA-290" style="edgeStyle=orthogonalEdgeStyle;rounded=0;orthogonalLoop=1;jettySize=auto;html=1;" edge="1" parent="1" source="8oeNf3qkIjY3Hb9Y6gsA-238" target="8oeNf3qkIjY3Hb9Y6gsA-259">
          <mxGeometry relative="1" as="geometry" />
        </mxCell>
        <mxCell id="8oeNf3qkIjY3Hb9Y6gsA-292" style="edgeStyle=orthogonalEdgeStyle;rounded=0;orthogonalLoop=1;jettySize=auto;html=1;entryX=0;entryY=0.5;entryDx=0;entryDy=0;" edge="1" parent="1" source="8oeNf3qkIjY3Hb9Y6gsA-238" target="8oeNf3qkIjY3Hb9Y6gsA-257">
          <mxGeometry relative="1" as="geometry" />
        </mxCell>
        <mxCell id="8oeNf3qkIjY3Hb9Y6gsA-238" value="&lt;span&gt;Convencional&lt;/span&gt;&lt;div&gt;&lt;span&gt;(cvn)&lt;/span&gt;&lt;/div&gt;" style="html=1;whiteSpace=wrap;fillColor=#fff2cc;strokeColor=#d6b656;strokeWidth=2;fontStyle=1" vertex="1" parent="1">
          <mxGeometry x="890" y="1270" width="120" height="40" as="geometry" />
        </mxCell>
        <mxCell id="8oeNf3qkIjY3Hb9Y6gsA-291" style="edgeStyle=orthogonalEdgeStyle;rounded=0;orthogonalLoop=1;jettySize=auto;html=1;" edge="1" parent="1" source="8oeNf3qkIjY3Hb9Y6gsA-239" target="8oeNf3qkIjY3Hb9Y6gsA-263">
          <mxGeometry relative="1" as="geometry" />
        </mxCell>
        <mxCell id="8oeNf3qkIjY3Hb9Y6gsA-293" style="edgeStyle=orthogonalEdgeStyle;rounded=0;orthogonalLoop=1;jettySize=auto;html=1;entryX=0;entryY=0.5;entryDx=0;entryDy=0;" edge="1" parent="1" source="8oeNf3qkIjY3Hb9Y6gsA-239" target="8oeNf3qkIjY3Hb9Y6gsA-261">
          <mxGeometry relative="1" as="geometry" />
        </mxCell>
        <mxCell id="8oeNf3qkIjY3Hb9Y6gsA-294" style="edgeStyle=orthogonalEdgeStyle;rounded=0;orthogonalLoop=1;jettySize=auto;html=1;entryX=0;entryY=0.5;entryDx=0;entryDy=0;" edge="1" parent="1" source="8oeNf3qkIjY3Hb9Y6gsA-239" target="8oeNf3qkIjY3Hb9Y6gsA-257">
          <mxGeometry relative="1" as="geometry" />
        </mxCell>
        <mxCell id="8oeNf3qkIjY3Hb9Y6gsA-239" value="&lt;span&gt;POC&lt;/span&gt;&lt;div&gt;&lt;span style=&quot;background-color: initial;&quot;&gt;(poc)&lt;/span&gt;&lt;/div&gt;" style="html=1;whiteSpace=wrap;fillColor=#fff2cc;strokeColor=#d6b656;strokeWidth=2;fontStyle=1" vertex="1" parent="1">
          <mxGeometry x="890" y="1310" width="120" height="40" as="geometry" />
        </mxCell>
        <mxCell id="8oeNf3qkIjY3Hb9Y6gsA-256" style="edgeStyle=orthogonalEdgeStyle;rounded=0;orthogonalLoop=1;jettySize=auto;html=1;fontStyle=1" edge="1" source="8oeNf3qkIjY3Hb9Y6gsA-257" target="8oeNf3qkIjY3Hb9Y6gsA-264" parent="1">
          <mxGeometry relative="1" as="geometry" />
        </mxCell>
        <mxCell id="8oeNf3qkIjY3Hb9Y6gsA-257" value="GET" style="html=1;whiteSpace=wrap;fillColor=#d5e8d4;strokeColor=#82b366;rounded=1;arcSize=50;fontStyle=1" vertex="1" parent="1">
          <mxGeometry x="1090" y="1270" width="40" height="40" as="geometry" />
        </mxCell>
        <mxCell id="8oeNf3qkIjY3Hb9Y6gsA-258" style="edgeStyle=orthogonalEdgeStyle;rounded=0;orthogonalLoop=1;jettySize=auto;html=1;fontStyle=1" edge="1" source="8oeNf3qkIjY3Hb9Y6gsA-259" target="8oeNf3qkIjY3Hb9Y6gsA-267" parent="1">
          <mxGeometry relative="1" as="geometry" />
        </mxCell>
        <mxCell id="8oeNf3qkIjY3Hb9Y6gsA-259" value="POST" style="html=1;whiteSpace=wrap;fillColor=#ffe6cc;strokeColor=#d79b00;rounded=1;arcSize=50;fontStyle=1" vertex="1" parent="1">
          <mxGeometry x="1090" y="1230" width="40" height="40" as="geometry" />
        </mxCell>
        <mxCell id="8oeNf3qkIjY3Hb9Y6gsA-260" style="edgeStyle=orthogonalEdgeStyle;rounded=0;orthogonalLoop=1;jettySize=auto;html=1;entryX=0;entryY=0.5;entryDx=0;entryDy=0;fontStyle=1" edge="1" source="8oeNf3qkIjY3Hb9Y6gsA-261" target="8oeNf3qkIjY3Hb9Y6gsA-265" parent="1">
          <mxGeometry relative="1" as="geometry" />
        </mxCell>
        <mxCell id="8oeNf3qkIjY3Hb9Y6gsA-261" value="PUT" style="html=1;whiteSpace=wrap;fillColor=#dae8fc;strokeColor=#6c8ebf;rounded=1;arcSize=50;fontStyle=1" vertex="1" parent="1">
          <mxGeometry x="1090" y="1310" width="40" height="40" as="geometry" />
        </mxCell>
        <mxCell id="8oeNf3qkIjY3Hb9Y6gsA-262" style="edgeStyle=orthogonalEdgeStyle;rounded=0;orthogonalLoop=1;jettySize=auto;html=1;fontStyle=1" edge="1" source="8oeNf3qkIjY3Hb9Y6gsA-263" target="8oeNf3qkIjY3Hb9Y6gsA-266" parent="1">
          <mxGeometry relative="1" as="geometry" />
        </mxCell>
        <mxCell id="8oeNf3qkIjY3Hb9Y6gsA-263" value="DEL" style="html=1;whiteSpace=wrap;fillColor=#f8cecc;strokeColor=#b85450;rounded=1;arcSize=50;fontStyle=1" vertex="1" parent="1">
          <mxGeometry x="1090" y="1350" width="40" height="40" as="geometry" />
        </mxCell>
        <mxCell id="8oeNf3qkIjY3Hb9Y6gsA-264" value="Rotas" style="html=1;whiteSpace=wrap;fillColor=#d5e8d4;strokeColor=#82b366;fontStyle=1" vertex="1" parent="1">
          <mxGeometry x="1170" y="1270" width="160" height="40" as="geometry" />
        </mxCell>
        <mxCell id="8oeNf3qkIjY3Hb9Y6gsA-265" value="Rotas" style="html=1;whiteSpace=wrap;fillColor=#dae8fc;strokeColor=#6c8ebf;fontStyle=1" vertex="1" parent="1">
          <mxGeometry x="1170" y="1310" width="160" height="40" as="geometry" />
        </mxCell>
        <mxCell id="8oeNf3qkIjY3Hb9Y6gsA-266" value="Rotas" style="html=1;whiteSpace=wrap;fillColor=#f8cecc;strokeColor=#b85450;fontStyle=1" vertex="1" parent="1">
          <mxGeometry x="1170" y="1350" width="160" height="40" as="geometry" />
        </mxCell>
        <mxCell id="8oeNf3qkIjY3Hb9Y6gsA-267" value="Rotas" style="html=1;whiteSpace=wrap;fillColor=#ffe6cc;strokeColor=#d79b00;fontStyle=1" vertex="1" parent="1">
          <mxGeometry x="1170" y="1230" width="160" height="40" as="geometry" />
        </mxCell>
        <mxCell id="8oeNf3qkIjY3Hb9Y6gsA-268" style="edgeStyle=orthogonalEdgeStyle;rounded=0;orthogonalLoop=1;jettySize=auto;html=1;fontStyle=1" edge="1" source="8oeNf3qkIjY3Hb9Y6gsA-269" target="8oeNf3qkIjY3Hb9Y6gsA-276" parent="1">
          <mxGeometry relative="1" as="geometry" />
        </mxCell>
        <mxCell id="8oeNf3qkIjY3Hb9Y6gsA-269" value="GET" style="html=1;whiteSpace=wrap;fillColor=#d5e8d4;strokeColor=#82b366;rounded=1;arcSize=50;fontStyle=1" vertex="1" parent="1">
          <mxGeometry x="1090" y="870" width="40" height="40" as="geometry" />
        </mxCell>
        <mxCell id="8oeNf3qkIjY3Hb9Y6gsA-270" style="edgeStyle=orthogonalEdgeStyle;rounded=0;orthogonalLoop=1;jettySize=auto;html=1;fontStyle=1" edge="1" source="8oeNf3qkIjY3Hb9Y6gsA-271" target="8oeNf3qkIjY3Hb9Y6gsA-279" parent="1">
          <mxGeometry relative="1" as="geometry" />
        </mxCell>
        <mxCell id="8oeNf3qkIjY3Hb9Y6gsA-271" value="POST" style="html=1;whiteSpace=wrap;fillColor=#ffe6cc;strokeColor=#d79b00;rounded=1;arcSize=50;fontStyle=1" vertex="1" parent="1">
          <mxGeometry x="1090" y="830" width="40" height="40" as="geometry" />
        </mxCell>
        <mxCell id="8oeNf3qkIjY3Hb9Y6gsA-272" style="edgeStyle=orthogonalEdgeStyle;rounded=0;orthogonalLoop=1;jettySize=auto;html=1;entryX=0;entryY=0.5;entryDx=0;entryDy=0;fontStyle=1" edge="1" source="8oeNf3qkIjY3Hb9Y6gsA-273" target="8oeNf3qkIjY3Hb9Y6gsA-277" parent="1">
          <mxGeometry relative="1" as="geometry" />
        </mxCell>
        <mxCell id="8oeNf3qkIjY3Hb9Y6gsA-273" value="PUT" style="html=1;whiteSpace=wrap;fillColor=#dae8fc;strokeColor=#6c8ebf;rounded=1;arcSize=50;fontStyle=1" vertex="1" parent="1">
          <mxGeometry x="1090" y="910" width="40" height="40" as="geometry" />
        </mxCell>
        <mxCell id="8oeNf3qkIjY3Hb9Y6gsA-274" style="edgeStyle=orthogonalEdgeStyle;rounded=0;orthogonalLoop=1;jettySize=auto;html=1;fontStyle=1" edge="1" source="8oeNf3qkIjY3Hb9Y6gsA-275" target="8oeNf3qkIjY3Hb9Y6gsA-278" parent="1">
          <mxGeometry relative="1" as="geometry" />
        </mxCell>
        <mxCell id="8oeNf3qkIjY3Hb9Y6gsA-275" value="DEL" style="html=1;whiteSpace=wrap;fillColor=#f8cecc;strokeColor=#b85450;rounded=1;arcSize=50;fontStyle=1" vertex="1" parent="1">
          <mxGeometry x="1090" y="950" width="40" height="40" as="geometry" />
        </mxCell>
        <mxCell id="8oeNf3qkIjY3Hb9Y6gsA-276" value="Rotas" style="html=1;whiteSpace=wrap;fillColor=#d5e8d4;strokeColor=#82b366;fontStyle=1" vertex="1" parent="1">
          <mxGeometry x="1170" y="870" width="160" height="40" as="geometry" />
        </mxCell>
        <mxCell id="8oeNf3qkIjY3Hb9Y6gsA-277" value="Rotas" style="html=1;whiteSpace=wrap;fillColor=#dae8fc;strokeColor=#6c8ebf;fontStyle=1" vertex="1" parent="1">
          <mxGeometry x="1170" y="910" width="160" height="40" as="geometry" />
        </mxCell>
        <mxCell id="8oeNf3qkIjY3Hb9Y6gsA-278" value="Rotas" style="html=1;whiteSpace=wrap;fillColor=#f8cecc;strokeColor=#b85450;fontStyle=1" vertex="1" parent="1">
          <mxGeometry x="1170" y="950" width="160" height="40" as="geometry" />
        </mxCell>
        <mxCell id="8oeNf3qkIjY3Hb9Y6gsA-279" value="Rotas" style="html=1;whiteSpace=wrap;fillColor=#ffe6cc;strokeColor=#d79b00;fontStyle=1" vertex="1" parent="1">
          <mxGeometry x="1170" y="830" width="160" height="40" as="geometry" />
        </mxCell>
        <mxCell id="8oeNf3qkIjY3Hb9Y6gsA-301" value="" style="rounded=0;whiteSpace=wrap;html=1;fillColor=none;strokeWidth=2;dashed=1;" vertex="1" parent="1">
          <mxGeometry x="300" y="270" width="1080" height="290" as="geometry" />
        </mxCell>
        <mxCell id="8oeNf3qkIjY3Hb9Y6gsA-302" value="" style="rounded=0;whiteSpace=wrap;html=1;fillColor=none;strokeWidth=2;dashed=1;" vertex="1" parent="1">
          <mxGeometry x="300" y="720" width="1080" height="740" as="geometry" />
        </mxCell>
        <mxCell id="8oeNf3qkIjY3Hb9Y6gsA-303" value="" style="rounded=0;whiteSpace=wrap;html=1;fillColor=none;strokeWidth=2;dashed=1;" vertex="1" parent="1">
          <mxGeometry x="440" y="1480" width="800" height="400" as="geometry" />
        </mxCell>
      </root>
    </mxGraphModel>
  </diagram>
</mxfile>
